<svg width="430" height="886" viewBox="0 0 430 886" fill="none" xmlns="http://www.w3.org/2000/svg">
<path d="M0 0H430V886H0V0Z" fill="#8F0000"/>
<path d="M792.77 -54.235L710.616 -63.4766C708.241 -63.5257 705.922 -64.1509 703.886 -65.2903C701.851 -66.4298 700.169 -68.0441 699.009 -69.9738L672.366 -119.599C671.398 -121.385 671.092 -123.419 671.495 -125.384C671.897 -127.349 672.986 -129.135 674.591 -130.465L723.787 -181.434C725.619 -182.995 727.059 -184.914 728.004 -187.053C728.95 -189.191 729.378 -191.498 729.257 -193.808C729.136 -196.118 728.471 -198.375 727.307 -200.419C726.143 -202.462 724.51 -204.241 722.524 -205.63L683.552 -235.427C679.115 -238.645 673.694 -240.467 668.072 -240.628C662.451 -240.789 656.92 -239.281 652.278 -236.323L586.122 -198.405C584.071 -197.117 581.727 -196.291 579.274 -195.989C576.822 -195.688 574.328 -195.921 571.989 -196.668L507.697 -217.28C505.539 -217.881 503.605 -219.035 502.117 -220.609C500.628 -222.184 499.644 -224.116 499.277 -226.186L487.249 -289.589C486.232 -294.476 483.326 -298.847 479.08 -301.871C474.835 -304.896 469.545 -306.365 464.214 -306H409.545C404.194 -306.374 398.883 -304.894 394.632 -301.844C390.381 -298.795 387.489 -294.391 386.511 -289.477L374.482 -226.074C374.157 -223.989 373.188 -222.037 371.693 -220.456C370.198 -218.875 368.242 -217.733 366.063 -217.168L301.771 -196.556C299.431 -195.809 296.937 -195.576 294.485 -195.877C292.033 -196.179 289.689 -197.005 287.637 -198.293L221.481 -236.212C216.824 -239.158 211.286 -240.657 205.658 -240.496C200.031 -240.335 194.602 -238.522 190.147 -235.315L151.536 -205.462C149.55 -204.073 147.917 -202.294 146.753 -200.251C145.59 -198.207 144.924 -195.95 144.803 -193.64C144.683 -191.33 145.11 -189.023 146.056 -186.885C147.001 -184.746 148.441 -182.827 150.273 -181.266L199.469 -130.297C201.066 -128.962 202.148 -127.176 202.55 -125.213C202.952 -123.25 202.652 -121.219 201.695 -119.431L175.052 -69.8058C173.896 -67.8841 172.224 -66.2749 170.2 -65.136C168.176 -63.997 165.868 -63.3673 163.504 -63.3086L81.2903 -54.235C75.9898 -54.3264 70.8486 -52.5466 66.8993 -49.2531C62.95 -45.9595 60.4852 -41.3962 60 -36.4798V5.9758C60.3833 10.9675 62.802 15.6336 66.7604 19.018C70.7188 22.4025 75.9172 24.249 81.2903 24.179L163.504 33.3648C165.863 33.445 168.161 34.0834 170.182 35.2202C172.202 36.357 173.878 37.9544 175.052 39.8618L201.695 89.4867C202.646 91.2856 202.944 93.3238 202.542 95.294C202.141 97.2643 201.062 99.0594 199.469 100.409L150.273 151.378C148.442 152.934 147.003 154.848 146.057 156.982C145.112 159.116 144.685 161.419 144.805 163.725C144.926 166.031 145.592 168.283 146.755 170.322C147.919 172.361 149.551 174.135 151.536 175.518L190.388 205.315C194.832 208.538 200.259 210.367 205.889 210.538C211.518 210.709 217.061 209.214 221.722 206.268L287.878 168.293C289.94 167.027 292.285 166.217 294.735 165.926C297.185 165.634 299.674 165.869 302.011 166.612L366.303 187.168C368.469 187.774 370.408 188.936 371.898 190.521C373.387 192.106 374.366 194.05 374.723 196.13L386.751 259.533C387.699 264.431 390.542 268.835 394.743 271.912C398.944 274.988 404.211 276.522 409.545 276.224H464.515C469.907 276.576 475.247 275.052 479.502 271.948C483.757 268.844 486.624 264.381 487.549 259.421L499.578 196.018C499.935 193.938 500.914 191.994 502.403 190.409C503.892 188.824 505.831 187.662 507.998 187.056L572.289 166.5C574.627 165.757 577.116 165.522 579.565 165.814C582.015 166.105 584.361 166.915 586.423 168.181L652.579 206.155C657.227 209.106 662.761 210.603 668.383 210.432C674.004 210.261 679.422 208.43 683.853 205.203L722.765 175.182C724.75 173.799 726.382 172.025 727.545 169.986C728.709 167.947 729.375 165.695 729.495 163.389C729.616 161.083 729.189 158.78 728.243 156.646C727.298 154.512 725.859 152.598 724.028 151.042L674.831 100.073C673.238 98.7234 672.16 96.9282 671.758 94.958C671.357 92.9878 671.654 90.9496 672.606 89.1507L699.249 39.5257C700.428 37.6105 702.113 36.0081 704.145 34.8708C706.177 33.7336 708.487 33.0993 710.856 33.0285L792.77 24.179C798.066 24.2573 803.2 22.473 807.146 19.1819C811.093 15.8909 813.561 11.3353 814.06 6.42389V-36.0317C813.691 -41.0284 811.277 -45.7024 807.315 -49.0896C803.354 -52.4767 798.147 -54.3185 792.77 -54.235ZM527.183 54.7605C501.326 73.4544 469.523 83.6013 436.789 83.6013C404.056 83.6013 372.253 73.4544 346.396 54.7605C334.768 46.6313 325.331 36.0934 318.831 23.9808C312.331 11.8681 308.948 -1.48703 308.948 -15.028C308.948 -28.5689 312.331 -41.924 318.831 -54.0367C325.331 -66.1494 334.768 -76.6873 346.396 -84.8165C372.236 -103.547 404.045 -113.717 436.789 -113.717C469.534 -113.717 501.343 -103.547 527.183 -84.8165C538.8 -76.6804 548.227 -66.1402 554.72 -54.0284C561.212 -41.9166 564.591 -28.565 564.591 -15.028C564.591 -1.49094 561.212 11.8608 554.72 23.9726C548.227 36.0843 538.8 46.6244 527.183 54.7605Z" fill="#E60909" fill-opacity="0.55"/>
<path d="M334.77 865.765L252.616 856.523C250.241 856.474 247.922 855.849 245.886 854.71C243.851 853.57 242.169 851.956 241.009 850.026L214.366 800.401C213.398 798.615 213.092 796.581 213.495 794.616C213.897 792.651 214.986 790.865 216.591 789.535L265.787 738.566C267.619 737.005 269.059 735.086 270.004 732.948C270.95 730.809 271.378 728.502 271.257 726.192C271.136 723.882 270.471 721.625 269.307 719.581C268.143 717.538 266.51 715.759 264.524 714.37L225.552 684.573C221.115 681.355 215.694 679.534 210.072 679.372C204.451 679.211 198.92 680.719 194.278 683.677L128.122 721.595C126.071 722.883 123.727 723.709 121.274 724.011C118.822 724.312 116.328 724.08 113.989 723.332L49.6969 702.72C47.5388 702.119 45.6054 700.965 44.1168 699.391C42.6282 697.816 41.6443 695.884 41.277 693.814L29.2486 630.411C28.2322 625.524 25.3258 621.154 21.0803 618.129C16.8348 615.104 11.5452 613.635 6.21423 614H-48.4548C-53.8058 613.627 -59.1165 615.106 -63.3677 618.156C-67.6189 621.205 -70.511 625.609 -71.4892 630.523L-83.5176 693.926C-83.843 696.011 -84.8121 697.963 -86.307 699.544C-87.8019 701.125 -89.7581 702.268 -91.9375 702.832L-156.229 723.444C-158.569 724.192 -161.063 724.424 -163.515 724.123C-165.967 723.821 -168.311 722.995 -170.363 721.707L-236.519 683.789C-241.176 680.843 -246.714 679.343 -252.342 679.504C-257.969 679.665 -263.398 681.478 -267.853 684.685L-306.464 714.538C-308.45 715.927 -310.083 717.706 -311.247 719.749C-312.41 721.793 -313.076 724.05 -313.197 726.36C-313.317 728.67 -312.89 730.977 -311.944 733.116C-310.999 735.254 -309.559 737.173 -307.727 738.734L-258.531 789.704C-256.934 791.038 -255.852 792.824 -255.45 794.787C-255.048 796.75 -255.348 798.781 -256.305 800.569L-282.948 850.194C-284.104 852.116 -285.776 853.725 -287.8 854.864C-289.824 856.003 -292.132 856.633 -294.496 856.692L-376.71 865.765C-382.01 865.674 -387.151 867.453 -391.101 870.747C-395.05 874.041 -397.515 878.604 -398 883.52V925.976C-397.617 930.968 -395.198 935.634 -391.24 939.018C-387.281 942.403 -382.083 944.249 -376.71 944.179L-294.496 953.365C-292.137 953.445 -289.839 954.084 -287.818 955.22C-285.798 956.357 -284.122 957.954 -282.948 959.862L-256.305 1009.49C-255.354 1011.29 -255.056 1013.32 -255.458 1015.29C-255.859 1017.26 -256.938 1019.06 -258.531 1020.41L-307.727 1071.38C-309.558 1072.93 -310.997 1074.85 -311.943 1076.98C-312.888 1079.12 -313.315 1081.42 -313.195 1083.72C-313.074 1086.03 -312.408 1088.28 -311.245 1090.32C-310.081 1092.36 -308.449 1094.13 -306.464 1095.52L-267.612 1125.32C-263.168 1128.54 -257.741 1130.37 -252.111 1130.54C-246.482 1130.71 -240.939 1129.21 -236.278 1126.27L-170.122 1088.29C-168.06 1087.03 -165.715 1086.22 -163.265 1085.93C-160.815 1085.63 -158.326 1085.87 -155.989 1086.61L-91.6969 1107.17C-89.5307 1107.77 -87.5918 1108.94 -86.1024 1110.52C-84.6132 1112.11 -83.6339 1114.05 -83.277 1116.13L-71.2486 1179.53C-70.3013 1184.43 -67.4578 1188.84 -63.2568 1191.91C-59.0559 1194.99 -53.7892 1196.52 -48.4548 1196.22H6.51495C11.9068 1196.58 17.2469 1195.05 21.502 1191.95C25.757 1188.84 28.6245 1184.38 29.5493 1179.42L41.5777 1116.02C41.9346 1113.94 42.9138 1111.99 44.4031 1110.41C45.8924 1108.82 47.8314 1107.66 49.9976 1107.06L114.289 1086.5C116.627 1085.76 119.116 1085.52 121.565 1085.81C124.015 1086.1 126.361 1086.91 128.423 1088.18L194.579 1126.16C199.227 1129.11 204.761 1130.6 210.383 1130.43C216.004 1130.26 221.422 1128.43 225.853 1125.2L264.765 1095.18C266.75 1093.8 268.382 1092.02 269.545 1089.99C270.709 1087.95 271.375 1085.69 271.495 1083.39C271.616 1081.08 271.189 1078.78 270.243 1076.65C269.298 1074.51 267.859 1072.6 266.028 1071.04L216.831 1020.07C215.238 1018.72 214.16 1016.93 213.758 1014.96C213.357 1012.99 213.654 1010.95 214.606 1009.15L241.249 959.526C242.428 957.611 244.113 956.008 246.145 954.871C248.177 953.734 250.487 953.099 252.856 953.029L334.77 944.179C340.066 944.257 345.2 942.473 349.146 939.182C353.093 935.891 355.561 931.335 356.06 926.424V883.968C355.691 878.972 353.277 874.298 349.315 870.911C345.354 867.523 340.147 865.682 334.77 865.765ZM69.1829 974.761C43.326 993.454 11.5233 1003.6 -21.2105 1003.6C-53.9443 1003.6 -85.747 993.454 -111.604 974.761C-123.232 966.631 -132.669 956.094 -139.169 943.981C-145.669 931.868 -149.052 918.513 -149.052 904.972C-149.052 891.431 -145.669 878.076 -139.169 865.963C-132.669 853.851 -123.232 843.313 -111.604 835.184C-85.7642 816.453 -53.9549 806.283 -21.2105 806.283C11.5339 806.283 43.3432 816.453 69.1829 835.184C80.8003 843.32 90.2273 853.86 96.7195 865.972C103.212 878.083 106.591 891.435 106.591 904.972C106.591 918.509 103.212 931.861 96.7195 943.973C90.2273 956.084 80.8003 966.624 69.1829 974.761Z" fill="#E60909" fill-opacity="0.55"/>
</svg>
