<svg width="1440" height="1024" viewBox="0 0 1440 1024" fill="none" xmlns="http://www.w3.org/2000/svg">
<rect width="1440" height="1024" fill="#8F0000"/>
<g clip-path="url(#clip0_173_20)">
<path d="M1655.77 -66.235L1573.62 -75.4766C1571.24 -75.5257 1568.92 -76.1509 1566.89 -77.2903C1564.85 -78.4298 1563.17 -80.0441 1562.01 -81.9738L1535.37 -131.599C1534.4 -133.385 1534.09 -135.419 1534.49 -137.384C1534.9 -139.349 1535.99 -141.135 1537.59 -142.465L1586.79 -193.434C1588.62 -194.995 1590.06 -196.914 1591 -199.053C1591.95 -201.191 1592.38 -203.498 1592.26 -205.808C1592.14 -208.118 1591.47 -210.375 1590.31 -212.419C1589.14 -214.462 1587.51 -216.241 1585.52 -217.63L1546.55 -247.427C1542.11 -250.646 1536.69 -252.467 1531.07 -252.628C1525.45 -252.789 1519.92 -251.281 1515.28 -248.324L1449.12 -210.405C1447.07 -209.118 1444.73 -208.291 1442.27 -207.989C1439.82 -207.688 1437.33 -207.921 1434.99 -208.668L1370.7 -229.28C1368.54 -229.881 1366.61 -231.035 1365.12 -232.609C1363.63 -234.184 1362.64 -236.116 1362.28 -238.186L1350.25 -301.589C1349.23 -306.476 1346.33 -310.847 1342.08 -313.871C1337.83 -316.896 1332.55 -318.365 1327.21 -318H1272.55C1267.19 -318.374 1261.88 -316.894 1257.63 -313.844C1253.38 -310.795 1250.49 -306.391 1249.51 -301.477L1237.48 -238.074C1237.16 -235.989 1236.19 -234.037 1234.69 -232.456C1233.2 -230.875 1231.24 -229.733 1229.06 -229.168L1164.77 -208.556C1162.43 -207.809 1159.94 -207.576 1157.48 -207.877C1155.03 -208.179 1152.69 -209.005 1150.64 -210.293L1084.48 -248.212C1079.82 -251.158 1074.29 -252.657 1068.66 -252.496C1063.03 -252.335 1057.6 -250.522 1053.15 -247.315L1014.54 -217.462C1012.55 -216.073 1010.92 -214.294 1009.75 -212.251C1008.59 -210.207 1007.92 -207.95 1007.8 -205.64C1007.68 -203.33 1008.11 -201.023 1009.06 -198.885C1010 -196.746 1011.44 -194.827 1013.27 -193.266L1062.47 -142.297C1064.07 -140.962 1065.15 -139.176 1065.55 -137.213C1065.95 -135.25 1065.65 -133.219 1064.69 -131.431L1038.05 -81.8058C1036.9 -79.8841 1035.22 -78.2749 1033.2 -77.136C1031.18 -75.997 1028.87 -75.3674 1026.5 -75.3086L944.29 -66.235C938.99 -66.3265 933.849 -64.5467 929.899 -61.2531C925.95 -57.9596 923.485 -53.3962 923 -48.4798V-6.02423C923.383 -1.03256 925.802 3.63354 929.76 7.01797C933.719 10.4024 938.917 12.249 944.29 12.179L1026.5 21.3647C1028.86 21.4449 1031.16 22.0834 1033.18 23.2202C1035.2 24.3569 1036.88 25.9544 1038.05 27.8618L1064.69 77.4867C1065.65 79.2856 1065.94 81.3238 1065.54 83.294C1065.14 85.2642 1064.06 87.0594 1062.47 88.4085L1013.27 139.378C1011.44 140.934 1010 142.848 1009.06 144.982C1008.11 147.116 1007.68 149.419 1007.81 151.725C1007.93 154.031 1008.59 156.283 1009.76 158.322C1010.92 160.361 1012.55 162.135 1014.54 163.518L1053.39 193.315C1057.83 196.538 1063.26 198.367 1068.89 198.538C1074.52 198.709 1080.06 197.214 1084.72 194.268L1150.88 156.293C1152.94 155.027 1155.29 154.217 1157.74 153.926C1160.19 153.634 1162.67 153.869 1165.01 154.612L1229.3 175.168C1231.47 175.774 1233.41 176.936 1234.9 178.521C1236.39 180.106 1237.37 182.05 1237.72 184.13L1249.75 247.533C1250.7 252.431 1253.54 256.835 1257.74 259.912C1261.94 262.988 1267.21 264.522 1272.55 264.224H1327.51C1332.91 264.576 1338.25 263.052 1342.5 259.948C1346.76 256.844 1349.62 252.38 1350.55 247.421L1362.58 184.018C1362.93 181.938 1363.91 179.994 1365.4 178.409C1366.89 176.824 1368.83 175.662 1371 175.056L1435.29 154.5C1437.63 153.757 1440.12 153.522 1442.57 153.814C1445.02 154.105 1447.36 154.915 1449.42 156.181L1515.58 194.155C1520.23 197.106 1525.76 198.603 1531.38 198.432C1537 198.261 1542.42 196.43 1546.85 193.203L1585.76 163.182C1587.75 161.799 1589.38 160.025 1590.55 157.986C1591.71 155.947 1592.37 153.694 1592.5 151.389C1592.62 149.083 1592.19 146.78 1591.24 144.646C1590.3 142.512 1588.86 140.598 1587.03 139.042L1537.83 88.0725C1536.24 86.7233 1535.16 84.9282 1534.76 82.958C1534.36 80.9878 1534.65 78.9495 1535.61 77.1507L1562.25 27.5257C1563.43 25.6105 1565.11 24.008 1567.15 22.8708C1569.18 21.7336 1571.49 21.0993 1573.86 21.0285L1655.77 12.179C1661.07 12.2573 1666.2 10.4729 1670.15 7.18188C1674.09 3.89087 1676.56 -0.664764 1677.06 -5.57614V-48.0317C1676.69 -53.0284 1674.28 -57.7025 1670.32 -61.0896C1666.35 -64.4768 1661.15 -66.3186 1655.77 -66.235ZM1390.18 42.7604C1364.33 61.4543 1332.52 71.6013 1299.79 71.6013C1267.06 71.6013 1235.25 61.4543 1209.4 42.7604C1197.77 34.6312 1188.33 24.0934 1181.83 11.9807C1175.33 -0.131958 1171.95 -13.4871 1171.95 -27.028C1171.95 -40.5689 1175.33 -53.924 1181.83 -66.0367C1188.33 -78.1494 1197.77 -88.6873 1209.4 -96.8165C1235.24 -115.547 1267.05 -125.717 1299.79 -125.717C1332.53 -125.717 1364.34 -115.547 1390.18 -96.8165C1401.8 -88.6804 1411.23 -78.1402 1417.72 -66.0284C1424.21 -53.9167 1427.59 -40.565 1427.59 -27.028C1427.59 -13.491 1424.21 -0.139252 1417.72 11.9725C1411.23 24.0843 1401.8 34.6243 1390.18 42.7604Z" fill="#E60909" fill-opacity="0.55"/>
</g>
<path d="M524.77 1030.82L442.616 1021.58C440.241 1021.53 437.922 1020.91 435.886 1019.77C433.851 1018.63 432.169 1017.01 431.009 1015.08L404.366 965.458C403.398 963.672 403.092 961.638 403.495 959.673C403.897 957.708 404.986 955.921 406.591 954.592L455.787 903.623C457.619 902.061 459.059 900.143 460.004 898.004C460.95 895.865 461.378 893.559 461.257 891.249C461.136 888.938 460.471 886.681 459.307 884.638C458.143 882.595 456.51 880.815 454.524 879.427L415.552 849.629C411.115 846.411 405.694 844.59 400.072 844.429C394.451 844.268 388.92 845.775 384.278 848.733L318.122 886.652C316.071 887.939 313.727 888.766 311.274 889.067C308.822 889.369 306.328 889.136 303.989 888.388L239.697 867.777C237.539 867.175 235.605 866.022 234.117 864.447C232.628 862.873 231.644 860.941 231.277 858.871L219.249 795.468C218.232 790.58 215.326 786.21 211.08 783.185C206.835 780.161 201.545 778.692 196.214 779.057H141.545C136.194 778.683 130.883 780.163 126.632 783.212C122.381 786.262 119.489 790.666 118.511 795.58L106.482 858.983C106.157 861.068 105.188 863.02 103.693 864.601C102.198 866.182 100.242 867.324 98.0625 867.889L33.7708 888.5C31.4312 889.248 28.9372 889.481 26.4849 889.179C24.0326 888.878 21.6887 888.051 19.6374 886.764L-46.5188 848.845C-51.1762 845.899 -56.7143 844.399 -62.3418 844.56C-67.9693 844.721 -73.3982 846.535 -77.8528 849.741L-116.464 879.595C-118.45 880.983 -120.083 882.763 -121.247 884.806C-122.41 886.849 -123.076 889.106 -123.197 891.417C-123.317 893.727 -122.89 896.033 -121.944 898.172C-120.999 900.311 -119.559 902.229 -117.727 903.791L-68.5308 954.76C-66.9341 956.095 -65.8518 957.881 -65.4499 959.843C-65.0479 961.806 -65.3485 963.838 -66.3055 965.626L-92.9484 1015.25C-94.104 1017.17 -95.7758 1018.78 -97.8 1019.92C-99.8243 1021.06 -102.132 1021.69 -104.496 1021.75L-186.71 1030.82C-192.01 1030.73 -197.151 1032.51 -201.101 1035.8C-205.05 1039.1 -207.515 1043.66 -208 1048.58V1091.03C-207.617 1096.02 -205.198 1100.69 -201.24 1104.07C-197.281 1107.46 -192.083 1109.31 -186.71 1109.24L-104.496 1118.42C-102.137 1118.5 -99.8387 1119.14 -97.8183 1120.28C-95.798 1121.41 -94.1219 1123.01 -92.9484 1124.92L-66.3055 1174.54C-65.3538 1176.34 -65.0562 1178.38 -65.4576 1180.35C-65.859 1182.32 -66.9377 1184.12 -68.5308 1185.47L-117.727 1236.43C-119.558 1237.99 -120.997 1239.9 -121.943 1242.04C-122.888 1244.17 -123.315 1246.48 -123.195 1248.78C-123.074 1251.09 -122.408 1253.34 -121.245 1255.38C-120.081 1257.42 -118.449 1259.19 -116.464 1260.57L-77.6122 1290.37C-73.168 1293.6 -67.7413 1295.42 -62.1115 1295.59C-56.4817 1295.77 -50.9386 1294.27 -46.2782 1291.32L19.8779 1253.35C21.9398 1252.08 24.2855 1251.27 26.7353 1250.98C29.1852 1250.69 31.6741 1250.93 34.0113 1251.67L98.3031 1272.22C100.469 1272.83 102.408 1273.99 103.898 1275.58C105.387 1277.16 106.366 1279.11 106.723 1281.19L118.751 1344.59C119.699 1349.49 122.542 1353.89 126.743 1356.97C130.944 1360.04 136.211 1361.58 141.545 1361.28H196.515C201.907 1361.63 207.247 1360.11 211.502 1357C215.757 1353.9 218.624 1349.44 219.549 1344.48L231.578 1281.07C231.935 1278.99 232.914 1277.05 234.403 1275.47C235.892 1273.88 237.831 1272.72 239.998 1272.11L304.289 1251.56C306.627 1250.81 309.116 1250.58 311.565 1250.87C314.015 1251.16 316.361 1251.97 318.423 1253.24L384.579 1291.21C389.227 1294.16 394.761 1295.66 400.383 1295.49C406.004 1295.32 411.422 1293.49 415.853 1290.26L454.765 1260.24C456.75 1258.86 458.382 1257.08 459.545 1255.04C460.709 1253 461.375 1250.75 461.495 1248.45C461.616 1246.14 461.189 1243.84 460.243 1241.7C459.298 1239.57 457.859 1237.65 456.028 1236.1L406.831 1185.13C405.238 1183.78 404.16 1181.98 403.758 1180.01C403.357 1178.04 403.654 1176.01 404.606 1174.21L431.249 1124.58C432.428 1122.67 434.113 1121.06 436.145 1119.93C438.177 1118.79 440.487 1118.16 442.856 1118.09L524.77 1109.24C530.066 1109.31 535.2 1107.53 539.146 1104.24C543.093 1100.95 545.561 1096.39 546.06 1091.48V1049.02C545.691 1044.03 543.277 1039.35 539.315 1035.97C535.354 1032.58 530.147 1030.74 524.77 1030.82ZM259.183 1139.82C233.326 1158.51 201.523 1168.66 168.789 1168.66C136.056 1168.66 104.253 1158.51 78.3961 1139.82C66.7679 1131.69 57.3307 1121.15 50.831 1109.04C44.3314 1096.92 40.9477 1083.57 40.9477 1070.03C40.9477 1056.49 44.3314 1043.13 50.831 1031.02C57.3307 1018.91 66.7679 1008.37 78.3961 1000.24C104.236 981.51 136.045 971.34 168.789 971.34C201.534 971.34 233.343 981.51 259.183 1000.24C270.8 1008.38 280.227 1018.92 286.72 1031.03C293.212 1043.14 296.591 1056.49 296.591 1070.03C296.591 1083.57 293.212 1096.92 286.72 1109.03C280.227 1121.14 270.8 1131.68 259.183 1139.82Z" fill="#DC1C1C" fill-opacity="0.57"/>
<defs>
<clipPath id="clip0_173_20">
<rect width="754" height="582" fill="white" transform="translate(923 -318)"/>
</clipPath>
</defs>
</svg>
