<svg width="430" height="886" fill="none" xmlns="http://www.w3.org/2000/svg">
    <defs>
        <linearGradient id="c" x1="177.618" y1="435.405" x2="134.834" y2="515.215" gradientUnits="userSpaceOnUse">
            <stop stop-color="#F31C1C"/>
            <stop offset=".569" stop-color="#F90505"/>
            <stop offset=".733" stop-color="#E50202"/>
            <stop offset="1" stop-color="#C60000"/>
        </linearGradient>
        <linearGradient id="d" x1="303.293" y1="268.445" x2="275.137" y2="355.135" gradientUnits="userSpaceOnUse">
            <stop stop-color="#F31C1C"/>
            <stop offset=".569" stop-color="#F90505"/>
            <stop offset=".733" stop-color="#E50202"/>
            <stop offset="1" stop-color="#C60000"/>
        </linearGradient>
        <linearGradient id="g" x1="291.063" y1="264.929" x2="278.726" y2="354.635" gradientUnits="userSpaceOnUse">
            <stop stop-color="#F31C1C"/>
            <stop offset=".513" stop-color="red"/>
            <stop offset=".731" stop-color="red"/>
            <stop offset="1" stop-color="#F31C1C"/>
        </linearGradient>
        <linearGradient id="h" x1="166.137" y1="429.739" x2="138.058" y2="515.449" gradientUnits="userSpaceOnUse">
            <stop stop-color="#F41A1A"/>
            <stop offset=".513" stop-color="red"/>
            <stop offset=".731" stop-color="red"/>
            <stop offset="1" stop-color="#F31C1C"/>
        </linearGradient>
        <clipPath id="a">
            <path fill="#fff" d="M0 0h430v886H0z"/>
        </clipPath>
        <clipPath id="b">
            <path fill="#fff" transform="translate(65 245)" d="M0 0h280v280H0z"/>
        </clipPath>
        <filter id="e" x="55" y="391.678" width="231.106" height="143.323" filterUnits="userSpaceOnUse" color-interpolation-filters="sRGB">
            <feFlood flood-opacity="0" result="BackgroundImageFix"/>
            <feColorMatrix in="SourceAlpha" values="0 0 0 0 0 0 0 0 0 0 0 0 0 0 0 0 0 0 127 0" result="hardAlpha"/>
            <feOffset/>
            <feGaussianBlur stdDeviation="5"/>
            <feComposite in2="hardAlpha" operator="out"/>
            <feColorMatrix values="0 0 0 0 0.980392 0 0 0 0 1 0 0 0 0 0 0 0 0 1 0"/>
            <feBlend in2="BackgroundImageFix" result="effect1_dropShadow_150_75"/>
            <feBlend in="SourceGraphic" in2="effect1_dropShadow_150_75" result="shape"/>
        </filter>
        <filter id="f" x="137.458" y="235" width="217.542" height="147.761" filterUnits="userSpaceOnUse" color-interpolation-filters="sRGB">
            <feFlood flood-opacity="0" result="BackgroundImageFix"/>
            <feColorMatrix in="SourceAlpha" values="0 0 0 0 0 0 0 0 0 0 0 0 0 0 0 0 0 0 127 0" result="hardAlpha"/>
            <feOffset/>
            <feGaussianBlur stdDeviation="5"/>
            <feComposite in2="hardAlpha" operator="out"/>
            <feColorMatrix values="0 0 0 0 0.980392 0 0 0 0 1 0 0 0 0 0 0 0 0 1 0"/>
            <feBlend in2="BackgroundImageFix" result="effect1_dropShadow_150_75"/>
            <feBlend in="SourceGraphic" in2="effect1_dropShadow_150_75" result="shape"/>
        </filter>
    </defs>
    <g clip-path="url(#a)">
        <path fill="#8F0000" d="M0 0h430v886H0z"/>
        <path d="M0 0h430v856c0 16.569-13.431 30-30 30H30c-16.569 0-30-13.431-30-30V0Z" fill="#8F0000"/>
        <path d="m792.77-54.235-82.154-9.242a14.407 14.407 0 0 1-6.73-1.813c-2.035-1.14-3.717-2.754-4.877-4.684l-26.643-49.625a8.512 8.512 0 0 1-.871-5.785c.402-1.965 1.491-3.751 3.096-5.081l49.196-50.969a15.771 15.771 0 0 0 4.217-5.619 14.764 14.764 0 0 0 1.253-6.755 14.924 14.924 0 0 0-1.95-6.611 16.112 16.112 0 0 0-4.783-5.211l-38.972-29.797c-4.437-3.218-9.858-5.04-15.48-5.201-5.621-.161-11.152 1.347-15.794 4.305l-66.156 37.918a16.726 16.726 0 0 1-6.848 2.416 17.128 17.128 0 0 1-7.285-.679l-64.292-20.612c-2.158-.601-4.092-1.755-5.58-3.329-1.489-1.575-2.473-3.507-2.84-5.577l-12.028-63.403c-1.017-4.887-3.923-9.258-8.169-12.282-4.245-3.025-9.535-4.494-14.866-4.129h-54.669c-5.351-.374-10.662 1.106-14.913 4.156-4.251 3.049-7.143 7.453-8.121 12.367l-12.029 63.403c-.325 2.085-1.294 4.037-2.789 5.618-1.495 1.581-3.451 2.723-5.63 3.288l-64.292 20.612c-2.34.747-4.834.98-7.286.679a16.736 16.736 0 0 1-6.848-2.416l-66.156-37.919c-4.657-2.946-10.195-4.445-15.823-4.284-5.627.161-11.056 1.974-15.511 5.181l-38.611 29.853a16.112 16.112 0 0 0-4.783 5.211 14.937 14.937 0 0 0-1.95 6.611c-.12 2.31.307 4.617 1.253 6.755a15.771 15.771 0 0 0 4.217 5.619l49.196 50.969c1.597 1.335 2.679 3.121 3.081 5.084a8.569 8.569 0 0 1-.855 5.782l-26.643 49.625c-1.156 1.922-2.828 3.531-4.852 4.67a14.402 14.402 0 0 1-6.696 1.827L81.29-54.235c-5.3-.091-10.441 1.688-14.39 4.982-3.95 3.294-6.415 7.857-6.9 12.773V5.976c.383 4.991 2.802 9.658 6.76 13.042 3.959 3.384 9.157 5.231 14.53 5.161l82.214 9.186c2.359.08 4.657.718 6.678 1.855 2.02 1.137 3.696 2.734 4.87 4.642l26.643 49.625a8.675 8.675 0 0 1 .847 5.807c-.401 1.97-1.48 3.765-3.073 5.115l-49.196 50.969a15.74 15.74 0 0 0-4.216 5.604 14.74 14.74 0 0 0-1.252 6.743 14.876 14.876 0 0 0 1.95 6.597 16.048 16.048 0 0 0 4.781 5.196l38.852 29.797c4.444 3.223 9.871 5.052 15.501 5.223 5.629.171 11.172-1.324 15.833-4.27l66.156-37.975a16.93 16.93 0 0 1 6.857-2.367 17.297 17.297 0 0 1 7.276.686l64.292 20.556c2.166.606 4.105 1.768 5.595 3.353 1.489 1.585 2.468 3.529 2.825 5.609l12.028 63.403c.948 4.898 3.791 9.302 7.992 12.379 4.201 3.076 9.468 4.61 14.802 4.312h54.97c5.392.352 10.732-1.172 14.987-4.276 4.255-3.104 7.122-7.567 8.047-12.527l12.029-63.403c.357-2.08 1.336-4.024 2.825-5.609s3.428-2.747 5.595-3.353l64.291-20.556a17.3 17.3 0 0 1 7.276-.686 16.934 16.934 0 0 1 6.858 2.367l66.156 37.974c4.648 2.951 10.182 4.448 15.804 4.277 5.621-.171 11.039-2.002 15.47-5.229l38.912-30.021a16.034 16.034 0 0 0 4.78-5.196 14.85 14.85 0 0 0 1.95-6.597 14.713 14.713 0 0 0-1.252-6.743 15.725 15.725 0 0 0-4.215-5.604l-49.197-50.969c-1.593-1.35-2.671-3.145-3.073-5.115a8.676 8.676 0 0 1 .848-5.807l26.643-49.625c1.179-1.916 2.864-3.518 4.896-4.655a14.655 14.655 0 0 1 6.711-1.843l81.914-8.849c5.296.078 10.43-1.706 14.376-4.997 3.947-3.291 6.415-7.847 6.914-12.758v-42.456c-.369-4.996-2.783-9.67-6.745-13.058-3.961-3.387-9.168-5.228-14.545-5.145ZM527.183 54.76c-25.857 18.694-57.66 28.841-90.394 28.841-32.733 0-64.536-10.147-90.393-28.84-11.628-8.13-21.065-18.668-27.565-30.78-6.5-12.113-9.883-25.468-9.883-39.009 0-13.54 3.383-26.896 9.883-39.009 6.5-12.112 15.937-22.65 27.565-30.78 25.84-18.73 57.649-28.9 90.393-28.9 32.745 0 64.554 10.17 90.394 28.9C538.8-76.68 548.227-66.14 554.72-54.028c6.492 12.111 9.871 25.463 9.871 39 0 13.537-3.379 26.889-9.871 39-6.493 12.112-15.92 22.652-27.537 30.788ZM334.77 865.765l-82.154-9.241a14.423 14.423 0 0 1-6.73-1.814c-2.035-1.14-3.717-2.754-4.877-4.684l-26.643-49.625a8.512 8.512 0 0 1-.871-5.785c.402-1.965 1.491-3.751 3.096-5.081l49.196-50.969a15.777 15.777 0 0 0 4.217-5.618 14.77 14.77 0 0 0 1.253-6.756 14.924 14.924 0 0 0-1.95-6.611 16.112 16.112 0 0 0-4.783-5.211l-38.972-29.797c-4.437-3.218-9.858-5.039-15.48-5.201-5.621-.161-11.152 1.347-15.794 4.305l-66.156 37.918a16.726 16.726 0 0 1-6.848 2.416 17.112 17.112 0 0 1-7.285-.679L49.697 702.72c-2.158-.601-4.092-1.755-5.58-3.329-1.489-1.575-2.473-3.507-2.84-5.577l-12.028-63.403c-1.017-4.887-3.923-9.257-8.169-12.282-4.245-3.025-9.535-4.494-14.866-4.129h-54.669c-5.35-.373-10.662 1.106-14.913 4.156-4.25 3.049-7.143 7.453-8.121 12.367l-12.029 63.403c-.325 2.085-1.294 4.037-2.789 5.618-1.495 1.581-3.451 2.724-5.63 3.288l-64.292 20.612c-2.34.748-4.834.98-7.286.679a16.736 16.736 0 0 1-6.848-2.416l-66.156-37.918c-4.657-2.946-10.195-4.446-15.823-4.285-5.627.161-11.056 1.974-15.511 5.181l-38.611 29.853a16.112 16.112 0 0 0-4.783 5.211 14.937 14.937 0 0 0-1.95 6.611c-.12 2.31.307 4.617 1.253 6.756a15.777 15.777 0 0 0 4.217 5.618l49.196 50.97c1.597 1.334 2.679 3.12 3.081 5.083a8.569 8.569 0 0 1-.855 5.782l-26.643 49.625c-1.156 1.922-2.828 3.531-4.852 4.67a14.406 14.406 0 0 1-6.696 1.828l-82.214 9.073c-5.3-.091-10.441 1.688-14.391 4.982-3.949 3.294-6.414 7.857-6.899 12.773v42.456c.383 4.992 2.802 9.658 6.76 13.042 3.959 3.385 9.157 5.231 14.53 5.161l82.214 9.186a14.66 14.66 0 0 1 6.678 1.855c2.02 1.137 3.696 2.735 4.87 4.642l26.643 49.628a8.656 8.656 0 0 1 .847 5.8c-.401 1.97-1.48 3.77-3.073 5.12l-49.196 50.97a15.709 15.709 0 0 0-4.216 5.6 14.756 14.756 0 0 0-1.252 6.74c.121 2.31.787 4.56 1.95 6.6 1.164 2.04 2.796 3.81 4.781 5.2l38.852 29.8c4.444 3.22 9.871 5.05 15.501 5.22 5.629.17 11.172-1.33 15.833-4.27l66.156-37.98a16.994 16.994 0 0 1 6.857-2.36c2.45-.3 4.939-.06 7.276.68l64.292 20.56c2.166.6 4.105 1.77 5.594 3.35 1.49 1.59 2.47 3.53 2.826 5.61l12.028 63.4c.948 4.9 3.791 9.31 7.992 12.38 4.201 3.08 9.468 4.61 14.802 4.31h54.97c5.392.36 10.732-1.17 14.987-4.27 4.255-3.11 7.123-7.57 8.047-12.53l12.029-63.4a10.87 10.87 0 0 1 2.825-5.61c1.49-1.59 3.428-2.75 5.595-3.35l64.291-20.56c2.338-.74 4.827-.98 7.276-.69 2.45.29 4.796 1.1 6.858 2.37l66.156 37.98c4.648 2.95 10.182 4.44 15.804 4.27 5.621-.17 11.039-2 15.47-5.23l38.912-30.02a16.086 16.086 0 0 0 4.78-5.19c1.164-2.04 1.83-4.3 1.95-6.6.121-2.31-.306-4.61-1.252-6.74-.945-2.14-2.384-4.05-4.215-5.61l-49.197-50.97c-1.593-1.35-2.671-3.14-3.073-5.11a8.684 8.684 0 0 1 .848-5.81l26.643-49.624c1.179-1.915 2.864-3.518 4.896-4.655a14.647 14.647 0 0 1 6.711-1.842l81.914-8.85c5.296.078 10.43-1.706 14.376-4.997 3.947-3.291 6.415-7.847 6.914-12.758v-42.456c-.369-4.996-2.783-9.67-6.745-13.057-3.962-3.388-9.168-5.229-14.545-5.146ZM69.183 974.761c-25.857 18.693-57.66 28.839-90.394 28.839-32.733 0-64.536-10.146-90.393-28.839-11.628-8.13-21.065-18.667-27.565-30.78s-9.883-25.468-9.883-39.009 3.383-26.896 9.883-39.009c6.5-12.112 15.937-22.65 27.565-30.779 25.84-18.731 57.65-28.901 90.394-28.901 32.744 0 64.553 10.17 90.393 28.901 11.617 8.136 21.044 18.676 27.536 30.788 6.493 12.111 9.872 25.463 9.872 39 0 13.537-3.379 26.889-9.871 39.001-6.493 12.111-15.92 22.651-27.537 30.788Z" fill="#E60909" fill-opacity=".55"/>
        <path d="M111.509 604.38c-2.407 0-4.522-.443-6.346-1.33-1.824-.912-3.23-2.191-4.218-3.838-.988-1.672-1.482-3.61-1.482-5.814 0-3.243.671-6.093 2.014-8.55 1.368-2.483 3.268-4.408 5.7-5.776 2.457-1.368 5.294-2.052 8.512-2.052 2.381 0 4.547.418 6.498 1.254 1.95.811 3.293 1.875 4.028 3.192.152.304.228.608.228.912 0 .608-.266 1.165-.798 1.672-.507.481-1.09.722-1.748.722-.38 0-.748-.089-1.102-.266a2.32 2.32 0 0 1-.798-.684c-.71-.988-1.596-1.697-2.66-2.128-1.039-.456-2.382-.684-4.028-.684-2.128 0-4.016.532-5.662 1.596-1.622 1.039-2.888 2.508-3.8 4.408-.887 1.875-1.33 4.041-1.33 6.498 0 2.255.62 3.965 1.862 5.13 1.266 1.165 3.128 1.748 5.586 1.748 3.166 0 5.877-.937 8.132-2.812.886-.735 1.684-1.102 2.394-1.102.481 0 .886.177 1.216.532.354.355.532.785.532 1.292 0 .583-.254 1.127-.76 1.634-2.838 2.964-6.828 4.446-11.97 4.446Zm25.872 0c-2.026 0-3.812-.329-5.358-.988-1.52-.659-2.698-1.596-3.534-2.812-.836-1.216-1.254-2.622-1.254-4.218 0-2.229.532-4.193 1.596-5.89 1.09-1.723 2.597-3.065 4.522-4.028 1.951-.963 4.168-1.444 6.65-1.444 2.027 0 3.8.329 5.32.988 1.546.659 2.736 1.596 3.572 2.812.862 1.216 1.292 2.609 1.292 4.18 0 2.229-.544 4.205-1.634 5.928-1.064 1.723-2.571 3.065-4.522 4.028-1.925.963-4.142 1.444-6.65 1.444Zm.342-3.952c2.23 0 4.016-.646 5.358-1.938 1.368-1.317 2.052-3.053 2.052-5.206 0-1.419-.456-2.495-1.368-3.23-.912-.735-2.254-1.102-4.028-1.102-1.469 0-2.774.304-3.914.912a6.423 6.423 0 0 0-2.622 2.508c-.608 1.064-.912 2.293-.912 3.686 0 1.419.456 2.508 1.368 3.268.938.735 2.293 1.102 4.066 1.102Zm16.446 3.952c-.684 0-1.203-.152-1.558-.456-.355-.304-.532-.735-.532-1.292a2.9 2.9 0 0 1 .038-.532l2.622-14.82c.101-.709.393-1.267.874-1.672.507-.405 1.14-.608 1.9-.608.659 0 1.165.165 1.52.494.38.304.57.747.57 1.33 0 .203-.013.355-.038.456l-.228 1.254c.963-1.039 2.014-1.824 3.154-2.356a8.268 8.268 0 0 1 3.534-.798h.836c.709 0 1.254.139 1.634.418.405.279.608.671.608 1.178 0 .735-.266 1.317-.798 1.748-.532.405-1.241.608-2.128.608h-1.292c-1.723 0-3.179.545-4.37 1.634-1.165 1.089-1.913 2.559-2.242 4.408l-1.178 6.726c-.127.709-.456 1.267-.988 1.672s-1.178.608-1.938.608Zm16.996 0c-.684 0-1.203-.152-1.558-.456-.355-.304-.532-.735-.532-1.292a2.9 2.9 0 0 1 .038-.532l2.622-14.82c.101-.709.393-1.267.874-1.672.507-.405 1.14-.608 1.9-.608.659 0 1.165.165 1.52.494.38.304.57.747.57 1.33 0 .203-.013.355-.038.456l-.228 1.254c.963-1.039 2.014-1.824 3.154-2.356a8.268 8.268 0 0 1 3.534-.798h.836c.709 0 1.254.139 1.634.418.405.279.608.671.608 1.178 0 .735-.266 1.317-.798 1.748-.532.405-1.241.608-2.128.608h-1.292c-1.723 0-3.179.545-4.37 1.634-1.165 1.089-1.913 2.559-2.242 4.408l-1.178 6.726c-.127.709-.456 1.267-.988 1.672s-1.178.608-1.938.608Zm23.421-.038c-2.913 0-5.219-.747-6.916-2.242-1.672-1.495-2.508-3.534-2.508-6.118 0-2.103.519-3.99 1.558-5.662 1.039-1.672 2.47-2.977 4.294-3.914 1.824-.937 3.889-1.406 6.194-1.406 1.799 0 3.407.279 4.826.836 1.419.557 2.521 1.343 3.306 2.356a5.181 5.181 0 0 1 1.216 3.382c0 1.444-.469 2.584-1.406 3.42-.937.836-2.204 1.254-3.8 1.254h-11.438a5.42 5.42 0 0 0-.038.722c0 1.216.431 2.115 1.292 2.698.861.557 2.204.836 4.028.836 1.039 0 1.963-.101 2.774-.304.836-.203 1.71-.532 2.622-.988.937-.507 1.634-.76 2.09-.76.38 0 .735.203 1.064.608.329.405.494.785.494 1.14 0 .557-.367 1.127-1.102 1.71-.937.709-2.204 1.292-3.8 1.748a16.96 16.96 0 0 1-4.75.684Zm5.852-11.59c.405 0 .735-.114.988-.342.279-.253.418-.57.418-.95 0-.811-.443-1.444-1.33-1.9-.861-.481-2.052-.722-3.572-.722-1.799 0-3.243.342-4.332 1.026-1.089.684-1.761 1.647-2.014 2.888h9.842Zm18.353 11.628c-3.04 0-5.447-.785-7.22-2.356-1.748-1.571-2.622-3.711-2.622-6.422 0-2.077.507-3.914 1.52-5.51 1.013-1.596 2.419-2.837 4.218-3.724 1.824-.912 3.889-1.368 6.194-1.368 2.001 0 3.775.317 5.32.95 1.571.633 2.597 1.457 3.078 2.47.177.431.266.773.266 1.026 0 .811-.443 1.457-1.33 1.938-.456.228-.899.342-1.33.342-.684 0-1.292-.317-1.824-.95-.963-1.216-2.318-1.824-4.066-1.824-1.343 0-2.546.291-3.61.874a6.17 6.17 0 0 0-2.47 2.432c-.583 1.039-.874 2.217-.874 3.534 0 1.52.405 2.673 1.216 3.458.811.785 2.014 1.178 3.61 1.178.988 0 1.9-.152 2.736-.456.861-.329 1.773-.849 2.736-1.558.963-.709 1.735-1.064 2.318-1.064.38 0 .76.152 1.14.456.456.38.684.823.684 1.33 0 .481-.215 1.039-.646 1.672-.785 1.089-2.001 1.963-3.648 2.622-1.647.633-3.445.95-5.396.95Zm20.52-5.776a1.13 1.13 0 0 0-.038.342c0 .431.152.785.456 1.064.304.279.696.418 1.178.418.456 0 .861-.063 1.216-.19.354-.152.747-.393 1.178-.722.633-.507 1.165-.76 1.596-.76.405 0 .798.203 1.178.608.405.38.608.785.608 1.216 0 .431-.216.874-.646 1.33a8.193 8.193 0 0 1-2.812 1.824 9.022 9.022 0 0 1-3.42.646c-1.672 0-3.015-.443-4.028-1.33-.988-.912-1.482-2.128-1.482-3.648 0-.405.038-.811.114-1.216l1.558-8.892h-1.558c-.684 0-1.229-.139-1.634-.418-.38-.279-.57-.671-.57-1.178 0-.709.253-1.267.76-1.672.532-.431 1.241-.646 2.128-.646h1.558l1.026-5.738c.126-.709.43-1.267.912-1.672.481-.405 1.102-.608 1.862-.608.709 0 1.254.165 1.634.494.405.329.608.785.608 1.368 0 .177-.013.317-.038.418l-1.026 5.738h3.648c.684 0 1.216.139 1.596.418.405.279.608.671.608 1.178 0 .709-.266 1.279-.798 1.71-.507.405-1.204.608-2.09.608h-3.648l-1.634 9.31Zm16.718-15.96c-.811 0-1.457-.203-1.938-.608-.482-.431-.722-.988-.722-1.672 0-.963.342-1.761 1.026-2.394.709-.633 1.583-.95 2.622-.95.836 0 1.494.215 1.976.646.506.405.76.95.76 1.634 0 .988-.355 1.799-1.064 2.432-.71.608-1.596.912-2.66.912Zm-3.8 21.736c-.684 0-1.204-.152-1.558-.456-.355-.329-.532-.773-.532-1.33 0-.228.012-.393.038-.494l2.622-14.82c.101-.735.405-1.292.912-1.672.532-.405 1.178-.608 1.938-.608.684 0 1.216.177 1.596.532.38.355.57.798.57 1.33 0 .177-.013.317-.038.418l-2.622 14.82c-.127.709-.456 1.267-.988 1.672s-1.178.608-1.938.608Zm18.264 0c-2.027 0-3.813-.329-5.358-.988-1.52-.659-2.698-1.596-3.534-2.812-.836-1.216-1.254-2.622-1.254-4.218 0-2.229.532-4.193 1.596-5.89 1.089-1.723 2.596-3.065 4.522-4.028 1.95-.963 4.167-1.444 6.65-1.444 2.026 0 3.8.329 5.32.988 1.545.659 2.736 1.596 3.572 2.812.861 1.216 1.292 2.609 1.292 4.18 0 2.229-.545 4.205-1.634 5.928-1.064 1.723-2.572 3.065-4.522 4.028-1.926.963-4.142 1.444-6.65 1.444Zm.342-3.952c2.229 0 4.015-.646 5.358-1.938 1.368-1.317 2.052-3.053 2.052-5.206 0-1.419-.456-2.495-1.368-3.23-.912-.735-2.255-1.102-4.028-1.102-1.47 0-2.774.304-3.914.912a6.41 6.41 0 0 0-2.622 2.508c-.608 1.064-.912 2.293-.912 3.686 0 1.419.456 2.508 1.368 3.268.937.735 2.292 1.102 4.066 1.102Zm15.889 3.952c-.684 0-1.204-.152-1.558-.456-.355-.304-.532-.735-.532-1.292 0-.228.012-.405.038-.532l2.622-14.82c.101-.709.392-1.267.874-1.672.506-.405 1.14-.608 1.9-.608.658 0 1.165.165 1.52.494.38.304.57.747.57 1.33 0 .203-.013.355-.038.456l-.228 1.102c2.254-2.255 4.914-3.382 7.98-3.382 2.026 0 3.622.583 4.788 1.748 1.165 1.165 1.748 2.749 1.748 4.75 0 .557-.064 1.241-.19 2.052l-1.482 8.55c-.127.709-.456 1.267-.988 1.672s-1.178.608-1.938.608c-.684 0-1.204-.152-1.558-.456-.355-.304-.532-.735-.532-1.292 0-.228.012-.405.038-.532l1.482-8.55c.126-.684.19-1.216.19-1.596 0-1.013-.279-1.761-.836-2.242-.558-.507-1.406-.76-2.546-.76-1.926 0-3.522.57-4.788 1.71-1.267 1.115-2.078 2.685-2.432 4.712l-1.178 6.726c-.127.709-.456 1.267-.988 1.672s-1.178.608-1.938.608Zm31.731-.038c-2.102 0-4.002-.304-5.7-.912-1.672-.633-2.976-1.507-3.914-2.622-.278-.355-.418-.722-.418-1.102 0-.355.114-.697.342-1.026a2.98 2.98 0 0 1 .95-.912c.482-.279.925-.418 1.33-.418.507 0 .988.241 1.444.722.786.861 1.66 1.482 2.622 1.862.988.355 2.204.532 3.648.532.862 0 1.546-.152 2.052-.456.532-.304.798-.709.798-1.216 0-.431-.278-.811-.836-1.14-.557-.329-1.608-.747-3.154-1.254-2.381-.785-4.104-1.634-5.168-2.546-1.038-.912-1.532-1.989-1.482-3.23 0-1.723.76-3.091 2.28-4.104 1.52-1.013 3.547-1.52 6.08-1.52 1.9 0 3.598.291 5.092.874 1.52.557 2.521 1.292 3.002 2.204.203.355.304.697.304 1.026 0 .659-.405 1.241-1.216 1.748a2.525 2.525 0 0 1-1.254.342c-.684 0-1.317-.291-1.9-.874-.456-.456-1.076-.811-1.862-1.064-.76-.253-1.608-.38-2.546-.38-.886 0-1.596.139-2.128.418-.506.253-.76.621-.76 1.102 0 .304.114.557.342.76.228.203.659.431 1.292.684.634.253 1.698.621 3.192 1.102 3.851 1.241 5.776 3.129 5.776 5.662 0 1.849-.709 3.268-2.128 4.256-1.393.988-3.42 1.482-6.08 1.482ZM220.548 575.38c-.659 0-1.178-.152-1.558-.456-.38-.329-.57-.773-.57-1.33 0-.203.012-.367.038-.494l3.344-19.076c.354-1.849 1.064-3.243 2.128-4.18 1.089-.963 2.52-1.444 4.294-1.444h12.198c.658 0 1.165.139 1.52.418.354.253.532.633.532 1.14 0 .709-.254 1.279-.76 1.71-.507.431-1.166.646-1.976.646h-10.944a1.83 1.83 0 0 0-1.292.494c-.33.329-.545.785-.646 1.368l-1.026 5.662h9.69c.658 0 1.165.139 1.52.418.354.253.532.633.532 1.14 0 .709-.254 1.279-.76 1.71-.507.431-1.166.646-1.976.646h-9.69l-1.634 9.348a2.665 2.665 0 0 1-1.026 1.672c-.532.405-1.178.608-1.938.608Zm25.232 0c-2.052 0-3.724-.481-5.016-1.444-1.292-.988-1.938-2.267-1.938-3.838 0-1.393.406-2.635 1.216-3.724.836-1.089 1.989-1.938 3.458-2.546 1.495-.608 3.192-.912 5.092-.912 1.14 0 2.179.127 3.116.38.938.253 1.685.621 2.242 1.102l.152-.912c.051-.253.076-.595.076-1.026 0-.937-.291-1.609-.874-2.014-.582-.431-1.52-.646-2.812-.646-2.102 0-3.977.443-5.624 1.33-.709.355-1.279.532-1.71.532-.43 0-.81-.165-1.14-.494-.329-.329-.494-.709-.494-1.14 0-.684.444-1.317 1.33-1.9 1.039-.659 2.28-1.178 3.724-1.558 1.47-.38 2.977-.57 4.522-.57 2.508 0 4.51.57 6.004 1.71 1.495 1.14 2.242 2.66 2.242 4.56 0 .38-.038.785-.114 1.216l-1.71 9.766c-.126.659-.443 1.178-.95 1.558-.481.38-1.114.57-1.9.57-.658 0-1.178-.139-1.558-.418-.38-.304-.57-.709-.57-1.216 0-.177.013-.317.038-.418l.076-.418c-1.773 1.647-4.066 2.47-6.878 2.47Zm1.786-3.496c1.698 0 3.066-.279 4.104-.836 1.039-.583 1.558-1.355 1.558-2.318 0-.735-.418-1.317-1.254-1.748-.836-.456-1.95-.684-3.344-.684-1.494 0-2.672.291-3.534.874-.836.583-1.254 1.393-1.254 2.432 0 .735.317 1.305.95 1.71.659.38 1.584.57 2.774.57Zm24.16 3.496c-3.04 0-5.447-.785-7.22-2.356-1.748-1.571-2.622-3.711-2.622-6.422 0-2.077.506-3.914 1.52-5.51 1.013-1.596 2.419-2.837 4.218-3.724 1.824-.912 3.888-1.368 6.194-1.368 2.001 0 3.774.317 5.32.95 1.57.633 2.596 1.457 3.078 2.47.177.431.266.773.266 1.026 0 .811-.444 1.457-1.33 1.938-.456.228-.9.342-1.33.342-.684 0-1.292-.317-1.824-.95-.963-1.216-2.318-1.824-4.066-1.824-1.343 0-2.546.291-3.61.874a6.164 6.164 0 0 0-2.47 2.432c-.583 1.039-.874 2.217-.874 3.534 0 1.52.405 2.673 1.216 3.458.81.785 2.014 1.178 3.61 1.178.988 0 1.9-.152 2.736-.456.861-.329 1.773-.849 2.736-1.558.962-.709 1.735-1.064 2.318-1.064.38 0 .76.152 1.14.456.456.38.684.823.684 1.33 0 .481-.216 1.039-.646 1.672-.786 1.089-2.002 1.963-3.648 2.622-1.647.633-3.446.95-5.396.95Zm20.519-5.776c-.025.076-.038.19-.038.342 0 .431.152.785.456 1.064.304.279.697.418 1.178.418.456 0 .861-.063 1.216-.19.355-.152.747-.393 1.178-.722.633-.507 1.165-.76 1.596-.76.405 0 .798.203 1.178.608.405.38.608.785.608 1.216 0 .431-.215.874-.646 1.33a8.183 8.183 0 0 1-2.812 1.824 9.022 9.022 0 0 1-3.42.646c-1.672 0-3.015-.443-4.028-1.33-.988-.912-1.482-2.128-1.482-3.648 0-.405.038-.811.114-1.216l1.558-8.892h-1.558c-.684 0-1.229-.139-1.634-.418-.38-.279-.57-.671-.57-1.178 0-.709.253-1.267.76-1.672.532-.431 1.241-.646 2.128-.646h1.558l1.026-5.738c.127-.709.431-1.267.912-1.672.481-.405 1.102-.608 1.862-.608.709 0 1.254.165 1.634.494.405.329.608.785.608 1.368 0 .177-.013.317-.038.418l-1.026 5.738h3.648c.684 0 1.216.139 1.596.418.405.279.608.671.608 1.178 0 .709-.266 1.279-.798 1.71-.507.405-1.203.608-2.09.608h-3.648l-1.634 9.31Zm20.123 5.776c-2.026 0-3.812-.329-5.358-.988-1.52-.659-2.698-1.596-3.534-2.812-.836-1.216-1.254-2.622-1.254-4.218 0-2.229.532-4.193 1.596-5.89 1.09-1.723 2.597-3.065 4.522-4.028 1.951-.963 4.168-1.444 6.65-1.444 2.027 0 3.8.329 5.32.988 1.546.659 2.736 1.596 3.572 2.812.862 1.216 1.292 2.609 1.292 4.18 0 2.229-.544 4.205-1.634 5.928-1.064 1.723-2.571 3.065-4.522 4.028-1.925.963-4.142 1.444-6.65 1.444Zm.342-3.952c2.23 0 4.016-.646 5.358-1.938 1.368-1.317 2.052-3.053 2.052-5.206 0-1.419-.456-2.495-1.368-3.23-.912-.735-2.254-1.102-4.028-1.102-1.469 0-2.774.304-3.914.912a6.423 6.423 0 0 0-2.622 2.508c-.608 1.064-.912 2.293-.912 3.686 0 1.419.456 2.508 1.368 3.268.938.735 2.293 1.102 4.066 1.102Zm16.446 3.952c-.684 0-1.203-.152-1.558-.456-.354-.304-.532-.735-.532-1.292a2.9 2.9 0 0 1 .038-.532l2.622-14.82c.102-.709.393-1.267.874-1.672.507-.405 1.14-.608 1.9-.608.659 0 1.166.165 1.52.494.38.304.57.747.57 1.33 0 .203-.012.355-.038.456l-.228 1.254c.963-1.039 2.014-1.824 3.154-2.356a8.268 8.268 0 0 1 3.534-.798h.836c.71 0 1.254.139 1.634.418.406.279.608.671.608 1.178 0 .735-.266 1.317-.798 1.748-.532.405-1.241.608-2.128.608h-1.292c-1.722 0-3.179.545-4.37 1.634-1.165 1.089-1.912 2.559-2.242 4.408l-1.178 6.726c-.126.709-.456 1.267-.988 1.672s-1.178.608-1.938.608ZM88.277 575.38c-.684 0-1.242-.177-1.672-.532-.406-.355-.608-.811-.608-1.368 0-.177.013-.304.038-.38l3.344-19.076c.304-1.773 1.051-3.154 2.242-4.142 1.216-.988 2.736-1.482 4.56-1.482h6.422c3.597 0 6.219.608 7.866 1.824 1.647 1.191 2.47 3.091 2.47 5.7 0 2.229-.532 4.205-1.596 5.928-1.064 1.697-2.571 3.027-4.522 3.99-1.925.937-4.142 1.406-6.65 1.406h-8.056l-1.026 5.852c-.127.709-.444 1.267-.95 1.672-.507.405-1.127.608-1.862.608Zm11.894-12.046c2.305 0 4.155-.633 5.548-1.9 1.393-1.292 2.09-3.002 2.09-5.13 0-1.469-.405-2.495-1.216-3.078-.785-.608-2.166-.912-4.142-.912h-6.08c-.507 0-.938.165-1.292.494-.33.329-.545.785-.646 1.368l-1.634 9.158h7.372Zm22.923 12.046c-2.027 0-3.813-.329-5.358-.988-1.52-.659-2.698-1.596-3.534-2.812-.836-1.216-1.254-2.622-1.254-4.218 0-2.229.532-4.193 1.596-5.89 1.089-1.723 2.597-3.065 4.522-4.028 1.951-.963 4.167-1.444 6.65-1.444 2.027 0 3.8.329 5.32.988 1.545.659 2.736 1.596 3.572 2.812.861 1.216 1.292 2.609 1.292 4.18 0 2.229-.545 4.205-1.634 5.928-1.064 1.723-2.571 3.065-4.522 4.028-1.925.963-4.142 1.444-6.65 1.444Zm.342-3.952c2.229 0 4.015-.646 5.358-1.938 1.368-1.317 2.052-3.053 2.052-5.206 0-1.419-.456-2.495-1.368-3.23-.912-.735-2.255-1.102-4.028-1.102-1.469 0-2.774.304-3.914.912a6.41 6.41 0 0 0-2.622 2.508c-.608 1.064-.912 2.293-.912 3.686 0 1.419.456 2.508 1.368 3.268.937.735 2.293 1.102 4.066 1.102Zm20.915 3.952c-1.419 0-2.533-.431-3.344-1.292-.785-.861-1.216-2.103-1.292-3.724l-.57-11.78c-.025-.785.215-1.406.722-1.862.532-.481 1.267-.722 2.204-.722.811 0 1.431.177 1.862.532.431.329.646.823.646 1.482l-.114 12.616c0 .532.139.798.418.798.304 0 .532-.253.684-.76l3.306-10.488c.456-1.469 1.089-2.533 1.9-3.192.836-.659 1.951-.988 3.344-.988 1.191 0 2.128.38 2.812 1.14.709.76 1.039 1.773.988 3.04l-.418 10.488c0 .507.152.76.456.76.279 0 .494-.266.646-.798l4.332-12.616a2.673 2.673 0 0 1 1.14-1.482c.583-.355 1.279-.532 2.09-.532.709 0 1.254.139 1.634.418.405.279.608.671.608 1.178 0 .279-.076.608-.228.988l-4.674 11.78c-.709 1.723-1.545 2.989-2.508 3.8-.963.811-2.128 1.216-3.496 1.216-1.393 0-2.407-.431-3.04-1.292-.633-.887-.912-2.229-.836-4.028l.38-9.348v-.19c0-.38-.127-.57-.38-.57-.304 0-.532.253-.684.76l-2.888 9.348c-.557 1.824-1.305 3.167-2.242 4.028-.912.861-2.065 1.292-3.458 1.292Zm33.573-.038c-2.913 0-5.219-.747-6.916-2.242-1.672-1.495-2.508-3.534-2.508-6.118 0-2.103.519-3.99 1.558-5.662 1.039-1.672 2.47-2.977 4.294-3.914 1.824-.937 3.889-1.406 6.194-1.406 1.799 0 3.407.279 4.826.836 1.419.557 2.521 1.343 3.306 2.356a5.181 5.181 0 0 1 1.216 3.382c0 1.444-.469 2.584-1.406 3.42-.937.836-2.204 1.254-3.8 1.254H173.25a5.42 5.42 0 0 0-.038.722c0 1.216.431 2.115 1.292 2.698.861.557 2.204.836 4.028.836 1.039 0 1.963-.101 2.774-.304.836-.203 1.71-.532 2.622-.988.937-.507 1.634-.76 2.09-.76.38 0 .735.203 1.064.608.329.405.494.785.494 1.14 0 .557-.367 1.127-1.102 1.71-.937.709-2.204 1.292-3.8 1.748a16.96 16.96 0 0 1-4.75.684Zm5.852-11.59c.405 0 .735-.114.988-.342.279-.253.418-.57.418-.95 0-.811-.443-1.444-1.33-1.9-.861-.481-2.052-.722-3.572-.722-1.799 0-3.243.342-4.332 1.026-1.089.684-1.761 1.647-2.014 2.888h9.842Zm9.803 11.628c-.684 0-1.203-.152-1.558-.456-.355-.304-.532-.735-.532-1.292a2.9 2.9 0 0 1 .038-.532l2.622-14.82c.101-.709.393-1.267.874-1.672.507-.405 1.14-.608 1.9-.608.659 0 1.165.165 1.52.494.38.304.57.747.57 1.33 0 .203-.013.355-.038.456l-.228 1.254c.963-1.039 2.014-1.824 3.154-2.356a8.268 8.268 0 0 1 3.534-.798h.836c.709 0 1.254.139 1.634.418.405.279.608.671.608 1.178 0 .735-.266 1.317-.798 1.748-.532.405-1.241.608-2.128.608h-1.292c-1.723 0-3.179.545-4.37 1.634-1.165 1.089-1.913 2.559-2.242 4.408l-1.178 6.726c-.127.709-.456 1.267-.988 1.672s-1.178.608-1.938.608Z" fill="#fff"/>
        <g clip-path="url(#b)">
            <path d="M155.554 476.386a16.005 16.005 0 0 1-2.053 2.924c-3.335 3.559-7.779 5.725-12.511 6.098-4.903.54-9.839-.64-14.042-3.358-4.069-2.702-6.654-6.561-7.369-10.864a14.572 14.572 0 0 1 .437-6.475 13.994 13.994 0 0 1 3.187-5.553c2.087-2.283 4.674-3.989 7.534-4.969l-15.205-13.628-1.898.93a2.35 2.35 0 0 1-2.125-.071l-10.702-5.231a3.746 3.746 0 0 0-2.382-.47 3.836 3.836 0 0 0-2.19 1.095l-4.898 5.506c-.254.277-.445.61-.56.975a2.72 2.72 0 0 0 .257 2.209c.197.324.459.599.768.803l8.58 7.619c.268.183.473.453.583.769.111.317.122.662.032.985l-2.57 8.541a1.946 1.946 0 0 1-.596.842 1.801 1.801 0 0 1-.924.395l-11.762 2.73c-1.748.291-2.898 1.707-2.643 3.221l1.113 6.961c.253 1.529 1.82 2.656 3.597 2.6l12.336.279c.357-.021.713.048 1.038.203.326.155.611.39.832.685l5.236 7.738c.19.264.29.588.283.92a1.517 1.517 0 0 1-.32.906l-5.842 9.093a2.69 2.69 0 0 0-.459 1.041c-.079.379-.077.771.004 1.148.082.378.242.732.468 1.037.226.306.514.555.842.729l6.504 4.361a3.819 3.819 0 0 0 2.359.632 3.863 3.863 0 0 0 2.265-.937l8.664-7.222c.278-.244.606-.416.959-.502a2.178 2.178 0 0 1 1.07.009l9.992 2.412c.338.063.653.219.913.454.261.234.457.538.568.879l3.444 10.218c.391 1.515 2.05 2.54 3.818 2.356l8.072-.826c1.775-.183 3.046-1.506 2.937-3.041l-.037-10.627a1.73 1.73 0 0 1 .266-.966c.182-.285.443-.503.748-.625l8.882-4.342a2.335 2.335 0 0 1 2.118.07l10.709 5.232a3.746 3.746 0 0 0 2.382.47 3.834 3.834 0 0 0 2.189-1.095l1.458-1.637-26.356-23.636Z" fill="url(#c)"/>
            <path d="M288.188 312.796a16.443 16.443 0 0 1-1.549 3.251c-2.711 4.107-6.739 7.041-11.341 8.261a21.322 21.322 0 0 1-14.379-.782c-4.447-1.93-7.619-5.267-9.02-9.378a14.566 14.566 0 0 1-.618-6.458 14.292 14.292 0 0 1 2.241-6.046c1.687-2.625 3.96-4.772 6.619-6.252l-17.188-10.691-1.72 1.258a2.375 2.375 0 0 1-1.019.408 2.342 2.342 0 0 1-1.086-.095l-11.392-3.228a3.732 3.732 0 0 0-2.423-.035 3.93 3.93 0 0 0-1.98 1.473l-3.935 6.307a2.716 2.716 0 0 0-.317 2.2c.106.368.288.707.534.992.246.284.549.507.887.653l9.687 5.963c.294.132.54.361.7.653.16.291.227.63.19.964l-1.149 8.878a1.99 1.99 0 0 1-.451.938 1.841 1.841 0 0 1-.846.555l-11.148 4.806c-1.675.602-2.579 2.204-2.082 3.65l2.223 6.659c.497 1.461 2.224 2.289 3.966 1.914l12.2-1.946c.347-.085.71-.08 1.055.014.346.094.665.274.931.526l6.411 6.681c.23.226.381.528.428.855.047.328-.012.663-.168.951l-4.284 10.011a2.769 2.769 0 0 0-.094 2.239c.142.358.356.678.629.938.272.26.596.453.947.566l7.115 3.126c.77.332 1.618.401 2.427.198a3.946 3.946 0 0 0 2.08-1.331l7.367-8.675c.234-.29.53-.519.864-.667a2.194 2.194 0 0 1 1.056-.184l10.236.578c.342.001.678.099.973.283.294.184.537.448.702.764l5.047 9.449c.63 1.422 2.432 2.133 4.144 1.633l7.819-2.266c1.72-.501 2.758-2.032 2.402-3.525l-1.757-10.464a1.736 1.736 0 0 1 .106-1c.133-.314.355-.576.635-.751l8.05-5.877a2.325 2.325 0 0 1 2.097-.313l11.4 3.228a3.732 3.732 0 0 0 2.423.035 3.923 3.923 0 0 0 1.979-1.473l1.172-1.876-29.796-18.545Z" fill="url(#d)"/>
            <g filter="url(#e)">
                <path d="M217.033 402.592 65 525l211.106-123.322h-62.215l3.142.914Z" fill="#FAFF00"/>
                <path d="m191.707 415.956-3.328-14.278H143.01l-.845.547 43.798 11.199L65 525l126.707-109.044Z" fill="#FFD600"/>
                <path d="M213.891 401.678h-25.512l3.328 14.278L65 525l152.033-122.408-3.142-.914Z" fill="#FFD600"/>
            </g>
            <g filter="url(#f)">
                <path d="M218.338 372.762h62.215l1.149-.743-43.804-11.199L345 245 193.449 365.533l24.889 7.229Z" fill="#FAFF00"/>
                <path d="M190.306 361.945 345 245 147.458 372.762h45.368l-2.52-10.817Z" fill="#FFD600"/>
                <path d="M192.826 372.762h25.512l-24.889-7.229L345 245 190.306 361.945l2.52 10.817Z" fill="#FFD600"/>
            </g>
            <path d="M264.922 293.477a21.22 21.22 0 0 1 14.379.782c4.447 1.922 7.619 5.259 9.02 9.378a14.096 14.096 0 0 1-.074 9.237l29.811 18.546 2.764-4.439c.205-.319.34-.681.394-1.061.055-.38.028-.768-.077-1.136a2.619 2.619 0 0 0-.535-.99 2.443 2.443 0 0 0-.886-.651l-9.687-5.963a1.505 1.505 0 0 1-.7-.653 1.634 1.634 0 0 1-.19-.964l1.149-8.878a2.02 2.02 0 0 1 .453-.939c.228-.264.52-.458.844-.562l11.148-4.79c1.675-.61 2.579-2.212 2.082-3.658l-2.223-6.658c-.489-1.462-2.224-2.29-3.966-1.907l-12.2 1.938a2.11 2.11 0 0 1-1.059-.012 2.194 2.194 0 0 1-.934-.527l-6.382-6.682a1.51 1.51 0 0 1-.26-1.798l4.285-10.019a2.732 2.732 0 0 0 .097-2.237 2.623 2.623 0 0 0-.63-.937 2.46 2.46 0 0 0-.95-.561l-7.115-3.126a3.788 3.788 0 0 0-2.428-.195 3.948 3.948 0 0 0-2.079 1.336l-7.412 8.667a2.31 2.31 0 0 1-.858.67c-.333.15-.694.214-1.054.189l-10.236-.578a1.842 1.842 0 0 1-.969-.284 1.976 1.976 0 0 1-.698-.763l-5.055-9.457c-.63-1.414-2.431-2.125-4.144-1.625l-7.819 2.266c-1.712.5-2.757 2.032-2.394 3.525l1.66 10.433c.064.336.027.684-.105.997a1.623 1.623 0 0 1-.636.746l-6.337 4.626 17.188 10.691a21.886 21.886 0 0 1 4.818-1.977Z" fill="url(#g)"/>
            <path d="M135.757 453.163c4.904-.549 9.842.632 14.042 3.358 4.07 2.695 6.656 6.554 7.369 10.864.515 3.13-.041 6.35-1.568 9.088l26.37 23.639 3.443-3.876a2.61 2.61 0 0 0 .56-.974 2.713 2.713 0 0 0-.259-2.205 2.524 2.524 0 0 0-.768-.801l-8.58-7.619a1.55 1.55 0 0 1-.583-.769 1.64 1.64 0 0 1-.031-.985l2.569-8.541a1.99 1.99 0 0 1 .598-.843c.268-.219.587-.358.923-.402l11.76-2.713c1.749-.3 2.899-1.715 2.644-3.229l-1.113-6.961c-.245-1.528-1.82-2.657-3.598-2.593l-12.335-.286a2.124 2.124 0 0 1-1.042-.202 2.238 2.238 0 0 1-.835-.688l-5.207-7.733a1.502 1.502 0 0 1 .036-1.818l5.843-9.1a2.742 2.742 0 0 0-.011-3.224 2.52 2.52 0 0 0-.845-.724l-6.505-4.361a3.812 3.812 0 0 0-2.36-.628 3.859 3.859 0 0 0-2.265.941l-8.706 7.206a2.255 2.255 0 0 1-.955.506 2.181 2.181 0 0 1-1.068-.003l-9.992-2.413a1.872 1.872 0 0 1-.909-.454 2.027 2.027 0 0 1-.565-.878l-3.45-10.227c-.391-1.507-2.051-2.532-3.819-2.347l-8.072.825c-1.768.185-3.045 1.506-2.929 3.042l-.053 10.579c.009.342-.084.679-.266.963a1.575 1.575 0 0 1-.747.621l-6.993 3.418 15.205 13.628a21.512 21.512 0 0 1 5.067-1.081Z" fill="url(#h)"/>
        </g>
    </g>
</svg>
